<svg id="visual" viewBox="0 0 3840 2160" width="3840" height="2160" xmlns="http://www.w3.org/2000/svg" xmlns:xlink="http://www.w3.org/1999/xlink" version="1.1"><rect x="0" y="0" width="3840" height="2160" fill="#812CD5"></rect><g transform="translate(1638.2363401699538 984.0373772499438)"><path d="M594.9 -740.3C808.9 -663.3 1046.4 -540.2 1153.9 -343.3C1261.4 -146.4 1238.9 124.4 1128.7 336.8C1018.4 549.1 820.4 702.9 617.7 835.5C415 968.2 207.5 1079.6 1.8 1077.2C-204 1074.7 -407.9 958.5 -514.9 794.7C-621.9 631 -631.9 419.8 -640.1 243.6C-648.3 67.5 -654.6 -73.6 -658.9 -261.6C-663.2 -449.5 -665.5 -684.3 -555.3 -795C-445.1 -905.7 -222.6 -892.3 -16.1 -870.2C190.4 -848.1 380.9 -817.2 594.9 -740.3" fill="#EFDBFF"></path></g></svg>