<svg id="Layer_1" data-name="Layer 1" xmlns="http://www.w3.org/2000/svg" viewBox="0 0 634 553.4"><defs><style>.cls-1{fill:#32de84;}</style></defs><title>New Android Logo Vector</title><g id="layer1"><g id="g80302"><path id="path825" d="M227.22,681c-21.8,0-44.22,17.47-44.22,48,0,28,19.71,47.7,44.22,47.7,20.23,0,29.24-13.58,29.24-13.58V769a6.24,6.24,0,0,0,5.92,5.92H277V683H256.46v11.67S247.37,681,227.22,681Zm3.66,18.8c17.94,0,27.36,15.78,27.36,29.24,0,15-11.18,29.24-27.33,29.24-13.49,0-27-10.93-27-29.43C203.9,712.09,215.53,699.75,230.88,699.75Z" transform="translate(-183 -223.3)"/><path id="path829" d="M305.55,775a5.76,5.76,0,0,1-5.92-5.92V683h20.55v11.38c4.65-7,13.74-13.49,27.7-13.49,22.82,0,35,18.18,35,35.19V775H368.57a6.3,6.3,0,0,1-6.27-6.27V720.64c0-9.42-5.77-20.87-19.13-20.87-14.41,0-23,13.62-23,26.44V775Z" transform="translate(-183 -223.3)"/><path id="path833" d="M442.73,681c-21.8,0-44.22,17.47-44.22,48,0,28,19.71,47.7,44.22,47.7C463,776.7,472,763.12,472,763.12V769a6.24,6.24,0,0,0,5.92,5.92h14.62V637.09H472v57.62S462.88,681,442.73,681Zm3.66,18.8c17.94,0,27.36,15.78,27.36,29.24,0,15-11.18,29.24-27.33,29.24-13.49,0-27-10.93-27-29.43C419.41,712.09,431,699.75,446.39,699.75Z" transform="translate(-183 -223.3)"/><path id="path835" d="M521.06,775a5.75,5.75,0,0,1-5.91-5.92V683h20.54v15.32c3.53-8.58,11.16-16.36,24.72-16.36a43.36,43.36,0,0,1,7.31.69v21.24a29.57,29.57,0,0,0-9.75-1.74c-14.41,0-22.28,13.62-22.28,26.45V775Z" transform="translate(-183 -223.3)"/><path id="path837" d="M692.36,775a5.75,5.75,0,0,1-5.92-5.92V683H707V775Z" transform="translate(-183 -223.3)"/><path id="path839" d="M767.21,681c-21.8,0-44.21,17.47-44.21,48,0,28,19.71,47.7,44.21,47.7,20.23,0,29.25-13.58,29.25-13.58V769a6.24,6.24,0,0,0,5.92,5.92H817V637.09H796.46v57.62S787.37,681,767.21,681Zm3.66,18.8c18,0,27.36,15.78,27.36,29.24,0,15-11.18,29.24-27.32,29.24-13.5,0-27-10.93-27-29.43C743.9,712.09,755.53,699.75,770.87,699.75Z" transform="translate(-183 -223.3)"/><circle id="path841" cx="513.55" cy="426.33" r="13.59"/><path id="path843" d="M621.89,680.92C599.06,680.92,574,698,574,728.84c0,28.13,21.36,47.86,47.86,47.86,32.66,0,48.6-26.25,48.6-47.69,0-26.3-20.53-48.09-48.55-48.09Zm.07,19.19c15.79,0,27.57,12.72,27.57,28.78,0,16.35-12.5,29-27.52,29-13.94,0-27.49-11.35-27.49-28.68,0-17.62,12.89-29.06,27.44-29.06Z" transform="translate(-183 -223.3)"/></g><path id="path80319" class="cls-1" d="M654.73,330.35l52.56-91.05a10.68,10.68,0,0,0-3.86-14.55,10.54,10.54,0,0,0-14.49,3.86L635.7,320.83c-40.63-18.56-86.35-28.9-135.53-28.9s-94.91,10.34-135.53,28.9l-53.25-92.22A10.64,10.64,0,1,0,293,239.3l52.55,91.05c-90.63,49.1-152,140.84-162.15,248.23H817C806.82,471.19,745.43,379.45,654.73,330.35Zm-300,159.25a26.56,26.56,0,1,1,26.55-26.55A26.57,26.57,0,0,1,354.71,489.6Zm290.85,0a26.56,26.56,0,1,1,26.56-26.55A26.56,26.56,0,0,1,645.56,489.6Z" transform="translate(-183 -223.3)"/></g></svg>