<svg id="visual" viewBox="0 0 3840 2160" width="3840" height="2160" xmlns="http://www.w3.org/2000/svg" xmlns:xlink="http://www.w3.org/1999/xlink" version="1.1"><rect x="0" y="0" width="3840" height="2160" fill="#ffffff"></rect><path d="M0 1367L80 1336.7C160 1306.3 320 1245.7 480 1279.7C640 1313.7 800 1442.3 960 1482.7C1120 1523 1280 1475 1440 1424.3C1600 1373.7 1760 1320.3 1920 1287.8C2080 1255.3 2240 1243.7 2400 1225.3C2560 1207 2720 1182 2880 1170.8C3040 1159.7 3200 1162.3 3360 1163.3C3520 1164.3 3680 1163.7 3760 1163.3L3840 1163L3840 2161L3760 2161C3680 2161 3520 2161 3360 2161C3200 2161 3040 2161 2880 2161C2720 2161 2560 2161 2400 2161C2240 2161 2080 2161 1920 2161C1760 2161 1600 2161 1440 2161C1280 2161 1120 2161 960 2161C800 2161 640 2161 480 2161C320 2161 160 2161 80 2161L0 2161Z" fill="#efdbff"></path><path d="M0 1360L80 1386.8C160 1413.7 320 1467.3 480 1508C640 1548.7 800 1576.3 960 1558.3C1120 1540.3 1280 1476.7 1440 1460.2C1600 1443.7 1760 1474.3 1920 1455.8C2080 1437.3 2240 1369.7 2400 1375.3C2560 1381 2720 1460 2880 1463.8C3040 1467.7 3200 1396.3 3360 1353.8C3520 1311.3 3680 1297.7 3760 1290.8L3840 1284L3840 2161L3760 2161C3680 2161 3520 2161 3360 2161C3200 2161 3040 2161 2880 2161C2720 2161 2560 2161 2400 2161C2240 2161 2080 2161 1920 2161C1760 2161 1600 2161 1440 2161C1280 2161 1120 2161 960 2161C800 2161 640 2161 480 2161C320 2161 160 2161 80 2161L0 2161Z" fill="#dbb9f7"></path><path d="M0 1473L80 1497.8C160 1522.7 320 1572.3 480 1584.5C640 1596.7 800 1571.3 960 1545.2C1120 1519 1280 1492 1440 1507.3C1600 1522.7 1760 1580.3 1920 1575.8C2080 1571.3 2240 1504.7 2400 1474C2560 1443.3 2720 1448.7 2880 1461.8C3040 1475 3200 1496 3360 1535.7C3520 1575.3 3680 1633.7 3760 1662.8L3840 1692L3840 2161L3760 2161C3680 2161 3520 2161 3360 2161C3200 2161 3040 2161 2880 2161C2720 2161 2560 2161 2400 2161C2240 2161 2080 2161 1920 2161C1760 2161 1600 2161 1440 2161C1280 2161 1120 2161 960 2161C800 2161 640 2161 480 2161C320 2161 160 2161 80 2161L0 2161Z" fill="#c798ef"></path><path d="M0 1598L80 1625.7C160 1653.3 320 1708.7 480 1714.8C640 1721 800 1678 960 1687.8C1120 1697.7 1280 1760.3 1440 1776.3C1600 1792.3 1760 1761.7 1920 1736C2080 1710.3 2240 1689.7 2400 1698.5C2560 1707.3 2720 1745.7 2880 1760.3C3040 1775 3200 1766 3360 1763.8C3520 1761.7 3680 1766.3 3760 1768.7L3840 1771L3840 2161L3760 2161C3680 2161 3520 2161 3360 2161C3200 2161 3040 2161 2880 2161C2720 2161 2560 2161 2400 2161C2240 2161 2080 2161 1920 2161C1760 2161 1600 2161 1440 2161C1280 2161 1120 2161 960 2161C800 2161 640 2161 480 2161C320 2161 160 2161 80 2161L0 2161Z" fill="#b176e7"></path><path d="M0 1733L80 1738.8C160 1744.7 320 1756.3 480 1767.3C640 1778.3 800 1788.7 960 1795.2C1120 1801.7 1280 1804.3 1440 1820.2C1600 1836 1760 1865 1920 1859C2080 1853 2240 1812 2400 1800.5C2560 1789 2720 1807 2880 1815.3C3040 1823.7 3200 1822.3 3360 1820C3520 1817.7 3680 1814.3 3760 1812.7L3840 1811L3840 2161L3760 2161C3680 2161 3520 2161 3360 2161C3200 2161 3040 2161 2880 2161C2720 2161 2560 2161 2400 2161C2240 2161 2080 2161 1920 2161C1760 2161 1600 2161 1440 2161C1280 2161 1120 2161 960 2161C800 2161 640 2161 480 2161C320 2161 160 2161 80 2161L0 2161Z" fill="#9a54de"></path><path d="M0 1998L80 1982.5C160 1967 320 1936 480 1938.3C640 1940.7 800 1976.3 960 1981C1120 1985.7 1280 1959.3 1440 1939.7C1600 1920 1760 1907 1920 1918C2080 1929 2240 1964 2400 1980.3C2560 1996.7 2720 1994.3 2880 1988.7C3040 1983 3200 1974 3360 1971.8C3520 1969.7 3680 1974.3 3760 1976.7L3840 1979L3840 2161L3760 2161C3680 2161 3520 2161 3360 2161C3200 2161 3040 2161 2880 2161C2720 2161 2560 2161 2400 2161C2240 2161 2080 2161 1920 2161C1760 2161 1600 2161 1440 2161C1280 2161 1120 2161 960 2161C800 2161 640 2161 480 2161C320 2161 160 2161 80 2161L0 2161Z" fill="#812cd5"></path></svg>