<svg id="visual" viewBox="0 0 3840 2160" width="3840" height="2160" xmlns="http://www.w3.org/2000/svg" xmlns:xlink="http://www.w3.org/1999/xlink" version="1.1"><rect x="0" y="0" width="3840" height="2160" fill="#ffffff"></rect><path d="M0 1547L58.2 1554.7C116.3 1562.3 232.7 1577.7 349 1567.5C465.3 1557.3 581.7 1521.7 698 1513.5C814.3 1505.3 930.7 1524.7 1047 1549.7C1163.3 1574.7 1279.7 1605.3 1396 1631.7C1512.3 1658 1628.7 1680 1745.2 1672.3C1861.7 1664.7 1978.3 1627.3 2094.8 1582.2C2211.3 1537 2327.7 1484 2444 1460.7C2560.3 1437.3 2676.7 1443.7 2793 1485.2C2909.3 1526.7 3025.7 1603.3 3142 1597.5C3258.3 1591.7 3374.7 1503.3 3491 1485.8C3607.3 1468.3 3723.7 1521.7 3781.8 1548.3L3840 1575L3840 2161L3781.8 2161C3723.7 2161 3607.3 2161 3491 2161C3374.7 2161 3258.3 2161 3142 2161C3025.7 2161 2909.3 2161 2793 2161C2676.7 2161 2560.3 2161 2444 2161C2327.7 2161 2211.3 2161 2094.8 2161C1978.3 2161 1861.7 2161 1745.2 2161C1628.7 2161 1512.3 2161 1396 2161C1279.7 2161 1163.3 2161 1047 2161C930.7 2161 814.3 2161 698 2161C581.7 2161 465.3 2161 349 2161C232.7 2161 116.3 2161 58.2 2161L0 2161Z" fill="#c78ce9"></path><path d="M0 1774L58.2 1745.3C116.3 1716.7 232.7 1659.3 349 1663.3C465.3 1667.3 581.7 1732.7 698 1736.3C814.3 1740 930.7 1682 1047 1673.7C1163.3 1665.3 1279.7 1706.7 1396 1709C1512.3 1711.3 1628.7 1674.7 1745.2 1685.2C1861.7 1695.7 1978.3 1753.3 2094.8 1733.7C2211.3 1714 2327.7 1617 2444 1570C2560.3 1523 2676.7 1526 2793 1536.2C2909.3 1546.3 3025.7 1563.7 3142 1592.8C3258.3 1622 3374.7 1663 3491 1694C3607.3 1725 3723.7 1746 3781.8 1756.5L3840 1767L3840 2161L3781.8 2161C3723.7 2161 3607.3 2161 3491 2161C3374.7 2161 3258.3 2161 3142 2161C3025.7 2161 2909.3 2161 2793 2161C2676.7 2161 2560.3 2161 2444 2161C2327.7 2161 2211.3 2161 2094.8 2161C1978.3 2161 1861.7 2161 1745.2 2161C1628.7 2161 1512.3 2161 1396 2161C1279.7 2161 1163.3 2161 1047 2161C930.7 2161 814.3 2161 698 2161C581.7 2161 465.3 2161 349 2161C232.7 2161 116.3 2161 58.2 2161L0 2161Z" fill="#bb7be9"></path><path d="M0 1877L58.2 1856.2C116.3 1835.3 232.7 1793.7 349 1775.3C465.3 1757 581.7 1762 698 1750.5C814.3 1739 930.7 1711 1047 1725.3C1163.3 1739.7 1279.7 1796.3 1396 1803.3C1512.3 1810.3 1628.7 1767.7 1745.2 1740.2C1861.7 1712.7 1978.3 1700.3 2094.8 1709.2C2211.3 1718 2327.7 1748 2444 1774.8C2560.3 1801.7 2676.7 1825.3 2793 1825.5C2909.3 1825.7 3025.7 1802.3 3142 1778.3C3258.3 1754.3 3374.7 1729.7 3491 1729.7C3607.3 1729.7 3723.7 1754.3 3781.8 1766.7L3840 1779L3840 2161L3781.8 2161C3723.7 2161 3607.3 2161 3491 2161C3374.7 2161 3258.3 2161 3142 2161C3025.7 2161 2909.3 2161 2793 2161C2676.7 2161 2560.3 2161 2444 2161C2327.7 2161 2211.3 2161 2094.8 2161C1978.3 2161 1861.7 2161 1745.2 2161C1628.7 2161 1512.3 2161 1396 2161C1279.7 2161 1163.3 2161 1047 2161C930.7 2161 814.3 2161 698 2161C581.7 2161 465.3 2161 349 2161C232.7 2161 116.3 2161 58.2 2161L0 2161Z" fill="#ad6bea"></path><path d="M0 1802L58.2 1809C116.3 1816 232.7 1830 349 1835.5C465.3 1841 581.7 1838 698 1833.5C814.3 1829 930.7 1823 1047 1839.3C1163.3 1855.7 1279.7 1894.3 1396 1914.2C1512.3 1934 1628.7 1935 1745.2 1903.7C1861.7 1872.3 1978.3 1808.7 2094.8 1809.2C2211.3 1809.7 2327.7 1874.3 2444 1893.2C2560.3 1912 2676.7 1885 2793 1879.5C2909.3 1874 3025.7 1890 3142 1872.5C3258.3 1855 3374.7 1804 3491 1797.8C3607.3 1791.7 3723.7 1830.3 3781.8 1849.7L3840 1869L3840 2161L3781.8 2161C3723.7 2161 3607.3 2161 3491 2161C3374.7 2161 3258.3 2161 3142 2161C3025.7 2161 2909.3 2161 2793 2161C2676.7 2161 2560.3 2161 2444 2161C2327.7 2161 2211.3 2161 2094.8 2161C1978.3 2161 1861.7 2161 1745.2 2161C1628.7 2161 1512.3 2161 1396 2161C1279.7 2161 1163.3 2161 1047 2161C930.7 2161 814.3 2161 698 2161C581.7 2161 465.3 2161 349 2161C232.7 2161 116.3 2161 58.2 2161L0 2161Z" fill="#9d5beb"></path><path d="M0 1882L58.2 1882.2C116.3 1882.3 232.7 1882.7 349 1893C465.3 1903.3 581.7 1923.7 698 1946.8C814.3 1970 930.7 1996 1047 1988.2C1163.3 1980.3 1279.7 1938.7 1396 1915.2C1512.3 1891.7 1628.7 1886.3 1745.2 1886C1861.7 1885.7 1978.3 1890.3 2094.8 1894.3C2211.3 1898.3 2327.7 1901.7 2444 1899.8C2560.3 1898 2676.7 1891 2793 1896.7C2909.3 1902.3 3025.7 1920.7 3142 1918C3258.3 1915.3 3374.7 1891.7 3491 1904.2C3607.3 1916.7 3723.7 1965.3 3781.8 1989.7L3840 2014L3840 2161L3781.8 2161C3723.7 2161 3607.3 2161 3491 2161C3374.7 2161 3258.3 2161 3142 2161C3025.7 2161 2909.3 2161 2793 2161C2676.7 2161 2560.3 2161 2444 2161C2327.7 2161 2211.3 2161 2094.8 2161C1978.3 2161 1861.7 2161 1745.2 2161C1628.7 2161 1512.3 2161 1396 2161C1279.7 2161 1163.3 2161 1047 2161C930.7 2161 814.3 2161 698 2161C581.7 2161 465.3 2161 349 2161C232.7 2161 116.3 2161 58.2 2161L0 2161Z" fill="#894bec"></path><path d="M0 2054L58.2 2053.7C116.3 2053.3 232.7 2052.7 349 2053.8C465.3 2055 581.7 2058 698 2050.2C814.3 2042.3 930.7 2023.7 1047 2014.3C1163.3 2005 1279.7 2005 1396 2003.5C1512.3 2002 1628.7 1999 1745.2 2003.5C1861.7 2008 1978.3 2020 2094.8 2017C2211.3 2014 2327.7 1996 2444 1984.7C2560.3 1973.3 2676.7 1968.7 2793 1987.8C2909.3 2007 3025.7 2050 3142 2056.5C3258.3 2063 3374.7 2033 3491 2020.2C3607.3 2007.3 3723.7 2011.7 3781.8 2013.8L3840 2016L3840 2161L3781.8 2161C3723.7 2161 3607.3 2161 3491 2161C3374.7 2161 3258.3 2161 3142 2161C3025.7 2161 2909.3 2161 2793 2161C2676.7 2161 2560.3 2161 2444 2161C2327.7 2161 2211.3 2161 2094.8 2161C1978.3 2161 1861.7 2161 1745.2 2161C1628.7 2161 1512.3 2161 1396 2161C1279.7 2161 1163.3 2161 1047 2161C930.7 2161 814.3 2161 698 2161C581.7 2161 465.3 2161 349 2161C232.7 2161 116.3 2161 58.2 2161L0 2161Z" fill="#723cee"></path></svg>